<svg xmlns="http://www.w3.org/2000/svg" width="262.777" height="54.089" viewBox="0 0 262.777 54.089">
  <g id="Group_668" data-name="Group 668" transform="translate(-38.913 -4505.906)">
    <g id="Group_667" data-name="Group 667">
      <path id="Path_647" data-name="Path 647" d="M80.364,4525.682" fill="#fff"/>
      <path id="Path_648" data-name="Path 648" d="M169.681,4522.168a8.752,8.752,0,0,0-.509-9.04c-2.451-3.983-7.011-6.5-12.839-7.089a34.464,34.464,0,0,0-27.075,10.2l1.879,1.761c6.009-6.411,16.264-10.277,24.937-9.4,5.012.507,8.885,2.594,10.906,5.877a6.171,6.171,0,0,1,.454,6.435c-2.092,3.744-8.61,5.873-18.412,6.039a24.088,24.088,0,0,1,4.858-9.151l-1.916-1.719c-6.526,7.272-7.414,19.023-7.4,25.059a29.446,29.446,0,0,1-3.5-2.3l-1.62,2c.342.277,8.168,6.531,17.265,6.531.36,0,.725-.01,1.089-.031,8.412-.472,11.262-5.441,11.146-9.551a11.172,11.172,0,0,0-7.75-9.847C164.929,4526.836,168.079,4525.035,169.681,4522.168Zm-3.309,15.69c.087,3.1-2.157,6.54-8.717,6.909a22.668,22.668,0,0,1-10.493-2.3,53.937,53.937,0,0,1,1.167-12.893c.972.046,3.131.1,7.874.1C162.425,4529.681,166.26,4533.838,166.372,4537.858Z" fill="#fff"/>
      <path id="Path_649" data-name="Path 649" d="M286.311,4515.907l-.487,5.641h2.165l.916-5.641Z" fill="#fff"/>
      <path id="Path_650" data-name="Path 650" d="M67.523,4514.237q2.937.647,5.756,1.157a36.188,36.188,0,0,0-6.3,15.26,65.336,65.336,0,0,0-1.057,14.468H68.5a63.316,63.316,0,0,1,1.007-13.983c.992-5.175,2.937-10.905,6.695-15.245,11.324,1.817,20.623,1.872,25.271.036,4-1.583,3.823-4.06,3.672-4.782-.672-3.214-6-5.032-13.914-4.748a22.669,22.669,0,0,0-15.993,6.722c-2.319-.4-4.715-.862-7.16-1.4-6.822-1.5-12.8-1.639-17.763-.412-5.447,1.346-8.236,3.972-9.616,5.938a8.574,8.574,0,0,0-.568,9.612c2.295,3.632,7.271,5.189,13.31,4.164l-.431-2.538c-4.98.845-8.981-.277-10.7-3a5.973,5.973,0,0,1,.5-6.758C47.255,4512.386,58.491,4512.25,67.523,4514.237Zm23.8-5.263c8.052-.291,11.091,1.695,11.3,2.7.1.458-.52,1.235-2.1,1.859-3.947,1.56-12.107,1.548-22.043.1A20.429,20.429,0,0,1,91.322,4508.974Z" fill="#fff"/>
      <path id="Path_651" data-name="Path 651" d="M132.064,4524.271c-1.711,6.089-6.421,18.212-12.725,18.212-.892,0-1.209-.333-1.386-.623-.414-.678-1.088-3.035,1.58-10.265,1.177-3.191,2.561-6.1,3.162-7.324h-2.859c-.719,1.521-1.768,3.858-2.711,6.41-2.285,6.189-2.734,10.284-1.371,12.52a3.927,3.927,0,0,0,3.585,1.857c4.4,0,8.375-3.7,11.815-10.989.4-.855.773-1.708,1.112-2.537-.279,5.485-1.437,13.073-5.329,18.6l-.322-.045c-1.857-.256-3.634-.45-5.284-.576-5.764-.441-10.278-.081-13.419,1.071-3.237,1.188-4.082,3.346-3.794,4.971.545,3.068,4.419,4.442,8.016,4.442h0c6.335,0,11.481-2.139,15.294-6.358,9.07-10.036,7.434-28.257,7.325-29.366Zm-19.928,33.149h0c-3.693,0-5.322-1.422-5.481-2.318-.135-.761.687-1.567,2.146-2.1a23.933,23.933,0,0,1,8.016-1.1q2,0,4.32.176c1.218.094,2.51.225,3.855.393C121.741,4555.756,117.42,4557.42,112.136,4557.42Z" fill="#fff"/>
      <path id="Path_652" data-name="Path 652" d="M112.128,4525.829a3.579,3.579,0,0,0-3.091-1.584c-3.369,0-6.9,3.371-10.782,10.306-.335.6-.656,1.192-.962,1.777l1.663-12.057h-2.6l-.7,5.088-.407.32a15.256,15.256,0,0,1-4.277,2.187c-.706-4-3.38-7.179-7.017-7.808a8.011,8.011,0,0,0-5.753,1.24,10.392,10.392,0,0,0-2.958,2.909,12.023,12.023,0,0,0-1.319,2.532,12.851,12.851,0,0,0-.647,2.37,11.863,11.863,0,0,0,1.226,7.82,8.263,8.263,0,0,0,5.789,4.293,7.713,7.713,0,0,0,1.314.114,8.487,8.487,0,0,0,5.581-2.212,11.873,11.873,0,0,0,3.782-6.953,12.923,12.923,0,0,0,.177-1.677,17.145,17.145,0,0,0,4.036-1.7l-1.7,12.33h2.607c2.773-7.149,8.674-18.3,12.949-18.3a1.02,1.02,0,0,1,.966.462c.439.641,1.247,2.941-.717,10.427-.823,3.14-1.841,6.045-2.342,7.413h2.738c.558-1.578,1.384-4.05,2.089-6.738C113.441,4532.026,113.558,4527.92,112.128,4525.829Zm-29.477.692a5,5,0,0,1,.864.074c2.562.443,4.432,2.784,4.933,5.759a7.841,7.841,0,0,1-2.137-.151c-2.377-.514-4.367-2.256-5.918-5.173A5.424,5.424,0,0,1,82.651,4526.521Zm5.781,9.211a9.291,9.291,0,0,1-2.936,5.45,5.442,5.442,0,0,1-8.748-1.514,9.284,9.284,0,0,1-.934-6.119,10.273,10.273,0,0,1,.517-1.9,9.449,9.449,0,0,1,1.036-1.992,8.4,8.4,0,0,1,.919-1.12c1.9,3.435,4.417,5.515,7.48,6.177a10.17,10.17,0,0,0,2.15.226c.209,0,.417-.008.623-.02Q88.5,4535.325,88.432,4535.732Z" fill="#fff"/>
      <path id="Path_653" data-name="Path 653" d="M206.567,4510.049a3.528,3.528,0,0,0-3.43-2.179c-.964.119-2.717.863-3.63,4.519-1.229,4.921-2.35,11.673-3.237,17.856a17.6,17.6,0,0,1-6.343,2.42c-.472-4.366-3.253-7.936-7.129-8.607a8.009,8.009,0,0,0-5.753,1.24,10.4,10.4,0,0,0-2.959,2.909,12.117,12.117,0,0,0-1.319,2.532,12.878,12.878,0,0,0-.647,2.371c-1.009,5.834,2.138,11.268,7.015,12.112a7.567,7.567,0,0,0,1.291.111c4.406,0,8.466-3.844,9.387-9.162h0c.052-.3.09-.6.12-.9a20.467,20.467,0,0,0,5.891-1.824c-.716,5.278-1.227,9.763-1.446,11.747h2.591c.263-2.374.865-7.592,1.691-13.47a13.415,13.415,0,0,0,2.075-1.914C207.7,4521.784,208.639,4513.94,206.567,4510.049Zm-19.292,25.683c-.767,4.436-4.222,7.556-7.7,6.953s-5.684-4.7-4.916-9.136a10.25,10.25,0,0,1,.516-1.9,9.5,9.5,0,0,1,1.036-1.992,8.336,8.336,0,0,1,1.3-1.491c1.782,4.649,5.2,7.178,9.8,7.283C187.3,4535.547,187.291,4535.639,187.275,4535.732Zm-7.515-8.91a5.29,5.29,0,0,1,1.735-.3,5,5,0,0,1,.864.074c2.712.469,4.65,3.064,5.009,6.287C183.678,4532.8,181.125,4530.764,179.76,4526.822Zm19.509.737c.791-5.2,1.728-10.508,2.736-14.547.506-2.028,1.232-2.56,1.446-2.586h.018c.155,0,.5.218.825.834C205.655,4513.814,205.39,4520.205,199.269,4527.559Z" fill="#fff"/>
      <g id="Group_666" data-name="Group 666">
        <path id="Path_654" data-name="Path 654" d="M221.355,4536.171a12.967,12.967,0,0,0,.179-1.71,16.651,16.651,0,0,0,3.6-1.523l-1.681,12.184h2.607c2.771-7.149,8.67-18.3,12.949-18.3a1.02,1.02,0,0,1,.966.462c.439.641,1.247,2.941-.717,10.427-.823,3.14-1.841,6.045-2.343,7.413h2.738c.559-1.578,1.384-4.05,2.09-6.738,1.67-6.358,1.787-10.464.358-12.555a3.582,3.582,0,0,0-3.092-1.584c-3.369,0-6.9,3.371-10.783,10.306-.334.6-.655,1.192-.961,1.777l.748-5.423.015-.012-.011-.014.927-6.724h-2.6l-.742,5.38-.189.151a14.774,14.774,0,0,1-4.053,2.139,11.044,11.044,0,0,0-1.227-3.474,8.264,8.264,0,0,0-5.789-4.293,8.007,8.007,0,0,0-5.752,1.24,10.383,10.383,0,0,0-2.959,2.909,12.024,12.024,0,0,0-1.319,2.532,12.878,12.878,0,0,0-.647,2.371c-1.01,5.834,2.137,11.268,7.015,12.112a7.716,7.716,0,0,0,1.315.114,8.486,8.486,0,0,0,5.58-2.212,11.873,11.873,0,0,0,3.782-6.953Zm-8.318-9.65a4.986,4.986,0,0,1,.864.074,5.738,5.738,0,0,1,3.983,3.017,8.507,8.507,0,0,1,.951,2.735,7.621,7.621,0,0,1-2.137-.133c-2.367-.5-4.357-2.245-5.919-5.184A5.424,5.424,0,0,1,213.037,4526.521Zm5.781,9.211h0a9.291,9.291,0,0,1-2.936,5.45,5.743,5.743,0,0,1-4.765,1.5c-3.479-.6-5.684-4.7-4.917-9.136a10.254,10.254,0,0,1,.517-1.9,9.449,9.449,0,0,1,1.036-1.992,8.4,8.4,0,0,1,.919-1.12c1.917,3.461,4.435,5.546,7.494,6.192a9.935,9.935,0,0,0,2.058.211c.236,0,.47-.01.7-.025C218.9,4535.19,218.865,4535.46,218.818,4535.732Z" fill="#fff"/>
      </g>
      <path id="Path_655" data-name="Path 655" d="M298.319,4533.54c-.466-.365-.947-.705-1.412-1.035-1.666-1.18-3.086-2.187-3.719-4a5.561,5.561,0,0,1,.047-3.675l.2-.56H290.7l-.995,2.826-.015.044c-.013.042-1.325,4.241-2.458,6.909-2.193,5.167-4.179,7.53-6.829,7.982a48.494,48.494,0,0,0,1.341-7.751,56.687,56.687,0,0,0,.1-10.01h-2.676c-1.709,6.088-6.414,18.212-12.726,18.212a1.405,1.405,0,0,1-1.387-.623c-.413-.678-1.087-3.035,1.581-10.265,1.177-3.191,2.561-6.1,3.162-7.324h-2.86c-.718,1.521-1.767,3.858-2.71,6.41q-.488,1.321-.863,2.514l0,0a22.831,22.831,0,0,1-7.986,7.847c-1.9,1.026-5.3,2.48-6.655.695-.917-1.211-.951-3.575-.354-6.1,3.044.371,8.039-.215,10.345-4.662.948-1.827,1.294-4.508-.851-6.05-1.8-1.29-4.97-1.188-7.568,1.5a19.251,19.251,0,0,0-4.376,8.386c-1.223,4.9-.054,7.412.752,8.475a4.716,4.716,0,0,0,3.969,1.874,12.95,12.95,0,0,0,5.959-1.855,22.46,22.46,0,0,0,5.526-4.3,7.061,7.061,0,0,0,.734,4.2,3.927,3.927,0,0,0,3.585,1.857c4.4,0,8.375-3.7,11.814-10.989.4-.842.763-1.682,1.1-2.5-.282,5.481-1.443,13.047-5.327,18.56l-.324-.043c-1.856-.256-3.634-.45-5.283-.576-5.764-.441-10.278-.08-13.419,1.071-3.237,1.188-4.083,3.346-3.794,4.971.545,3.068,4.419,4.442,8.016,4.442h0c7,0,12.522-2.6,16.421-7.715a27.024,27.024,0,0,0,3.956-7.595c5.238-.109,7.907-4.683,10.007-9.628.588-1.386,1.206-3.117,1.687-4.53a12.6,12.6,0,0,0,4.127,4.079c.46.327.9.635,1.313.961,2.342,1.834,3,4.068,1.807,6.131-1.838,3.174-6.237,3.731-9.429,2.437l-.968,2.386a11.621,11.621,0,0,0,4.378.883,9.517,9.517,0,0,0,8.247-4.416C302.218,4540.482,302.336,4536.684,298.319,4533.54Zm-46.176-5.324c1.565-1.621,3.339-1.827,4.213-1.2.687.494.713,1.531.068,2.774a6.176,6.176,0,0,1-4.981,3.255,11.176,11.176,0,0,1-2.285.066A15.125,15.125,0,0,1,252.143,4528.216Zm7.078,29.2c-3.693,0-5.322-1.422-5.481-2.318-.135-.761.687-1.567,2.146-2.1a23.929,23.929,0,0,1,8.016-1.1q2,0,4.319.176c1.218.093,2.509.225,3.854.392C268.817,4555.757,264.5,4557.42,259.221,4557.42Z" fill="#fff"/>
    </g>
  </g>
</svg>
